<svg xmlns="http://www.w3.org/2000/svg" viewBox="0 0 500 500"><g id="freepik--Floor--inject-95"><path d="M449.46,416c0,.14-89.31.26-199.45.26S50.54,416.12,50.54,416s89.29-.26,199.47-.26S449.46,415.83,449.46,416Z" style="fill:#263238"></path></g><g id="freepik--speech-bubble--inject-95"><circle cx="157.52" cy="122.73" r="46.2" transform="translate(-40.65 147.33) rotate(-45)" style="fill:#fafafa"></circle><path d="M200.86,153.88c0,.05-.5.09-1.3.45a6,6,0,0,0-2.7,2.45,5.73,5.73,0,0,0-.79,2.38,5,5,0,0,0,.58,2.79,5.48,5.48,0,0,0,10.23-.89,5,5,0,0,0,.08-2.84,5.69,5.69,0,0,0-1.18-2.22,6,6,0,0,0-3.08-1.94c-.86-.22-1.36-.17-1.36-.22a1.26,1.26,0,0,1,.36,0,2.23,2.23,0,0,1,.44,0,3.58,3.58,0,0,1,.59.08A6,6,0,0,1,206,155.8a6,6,0,0,1,1.3,2.32,5.33,5.33,0,0,1-.05,3.06,6.21,6.21,0,0,1-1.84,2.83,5.52,5.52,0,0,1-6.82.59,6.22,6.22,0,0,1-2.29-2.47,5.24,5.24,0,0,1-.58-3,5.9,5.9,0,0,1,.88-2.51,6,6,0,0,1,2.89-2.44,3.79,3.79,0,0,1,.57-.19,2.23,2.23,0,0,1,.43-.08A1.69,1.69,0,0,1,200.86,153.88Z" style="fill:#263238"></path><path d="M210.78,166.6s-.24.05-.65.23a3,3,0,0,0-1.34,1.22,2.75,2.75,0,0,0-.4,1.19,2.59,2.59,0,0,0,.29,1.39,2.74,2.74,0,0,0,5.11-.45,2.55,2.55,0,0,0,0-1.42,2.9,2.9,0,0,0-.59-1.1,3,3,0,0,0-1.54-1c-.43-.11-.68-.08-.68-.11l.18,0h.22a1.13,1.13,0,0,1,.3,0,3,3,0,0,1,1.63.95,2.9,2.9,0,0,1,.65,1.16,2.63,2.63,0,0,1,0,1.52,3,3,0,0,1-.91,1.41,2.77,2.77,0,0,1-3.41.3,3.12,3.12,0,0,1-1.14-1.23,2.63,2.63,0,0,1-.29-1.5,3,3,0,0,1,.44-1.25,2.94,2.94,0,0,1,1.44-1.22,1.35,1.35,0,0,1,.29-.09.59.59,0,0,1,.21,0Z" style="fill:#263238"></path><path d="M203.57,125.07s0-.25,0-.75,0-1.23,0-2.19c0-.48,0-1,0-1.61s-.13-1.24-.19-1.94-.16-1.45-.24-2.25a7.8,7.8,0,0,0-.2-1.24c-.09-.42-.18-.86-.27-1.3a44.09,44.09,0,0,0-4.46-12.47,45.94,45.94,0,0,0-11-13.6l-1.91-1.58c-.67-.49-1.38-.94-2.09-1.43L182.11,84a9.57,9.57,0,0,0-1.1-.68L178.69,82c-.4-.21-.79-.43-1.19-.63l-1.24-.53-2.53-1.07c-.86-.33-1.77-.57-2.66-.86l-1.36-.42c-.23-.07-.45-.15-.68-.21l-.7-.14a43.26,43.26,0,0,0-5.76-1c-1-.09-2-.24-3-.27h-3c-.51,0-1,0-1.53,0l-1.54.16c-1,.12-2.07.18-3.11.34A49.21,49.21,0,0,0,144.18,79l-1.55.48-.77.25-.75.32-3,1.27c-1,.48-2,1-2.94,1.56-.48.28-1,.51-1.46.82l-1.4.94a53.33,53.33,0,0,0-5.42,4.15l-2.45,2.45-.62.61-.56.67-1.12,1.35L121,95.17l-1,1.46-1,1.47-.5.74c-.15.25-.29.52-.43.78-.57,1-1.14,2.1-1.72,3.15l-1.41,3.33A45.32,45.32,0,0,0,113.46,135c.36,1.15.71,2.3,1.07,3.45l1.39,3.31.35.82.42.78.85,1.56.84,1.56,1,1.46,1,1.46.49.72.56.67,2.19,2.68a52,52,0,0,0,5,4.68l1.3,1.08c.43.36.92.64,1.37,1,.93.62,1.82,1.28,2.76,1.85l2.89,1.58.72.39.74.32,1.49.64a48.24,48.24,0,0,0,6,2.09c1,.27,2,.44,3,.66l1.52.31c.5.09,1,.12,1.52.18l3,.31c1,.06,2,0,3,0a41.43,41.43,0,0,0,5.82-.38l.71-.07c.24,0,.47-.09.7-.13l1.39-.28c.92-.2,1.85-.34,2.74-.59l2.62-.81,1.3-.4,1.24-.51,2.43-1a11.51,11.51,0,0,0,1.17-.57l1.13-.61c.75-.41,1.5-.79,2.22-1.22l2.06-1.37a45.86,45.86,0,0,0,12.3-12.42c.37-.54.74-1.06,1.07-1.58l.89-1.62.85-1.55c.14-.26.29-.5.41-.76l.33-.77c.43-1,.85-2,1.25-2.93s.61-1.88.9-2.74l.41-1.27a9.43,9.43,0,0,0,.32-1.21c.16-.79.32-1.54.46-2.22s.3-1.32.39-1.91l.17-1.6c.11-.95.19-1.68.24-2.18s.1-.74.1-.74,0,.25,0,.74-.12,1.23-.2,2.19c0,.48-.1,1-.16,1.61s-.23,1.22-.36,1.91l-.45,2.23A8.09,8.09,0,0,1,202,135c-.13.41-.26.84-.4,1.27-.28.87-.52,1.82-.89,2.76s-.8,1.93-1.24,2.95c-.11.26-.21.52-.33.78s-.26.51-.4.77l-.85,1.56-.88,1.63c-.34.53-.71,1.05-1.07,1.59a45.89,45.89,0,0,1-12.33,12.54l-2.07,1.39c-.72.42-1.48.81-2.23,1.23l-1.14.61a9.79,9.79,0,0,1-1.17.58l-2.45,1c-.42.18-.83.36-1.25.52l-1.3.41-2.64.82c-.9.25-1.83.39-2.76.6l-1.4.28c-.23.05-.47.11-.7.14l-.72.08a45.33,45.33,0,0,1-5.87.39c-1,0-2,0-3,0l-3-.31c-.51-.06-1-.08-1.54-.17l-1.53-.32c-1-.22-2.06-.39-3.08-.65a51.38,51.38,0,0,1-6.07-2.11l-1.5-.64c-.26-.11-.51-.21-.76-.33l-.72-.39-2.91-1.59c-.95-.57-1.86-1.24-2.79-1.86-.46-.32-1-.61-1.39-1l-1.31-1.09a51.58,51.58,0,0,1-5-4.71l-2.22-2.7-.56-.68-.5-.73-1-1.47-1-1.47-.86-1.57-.85-1.58-.43-.79-.35-.83-1.41-3.33-1.08-3.49a45.87,45.87,0,0,1,1.48-29.15c.48-1.12,1-2.24,1.43-3.36l1.73-3.17.44-.79.51-.74,1-1.49,1-1.47,1.14-1.36,1.13-1.37.56-.67.63-.62c.83-.82,1.65-1.65,2.48-2.46a52.79,52.79,0,0,1,5.46-4.19l1.42-.94c.46-.32,1-.55,1.47-.83,1-.52,2-1.09,3-1.57L141,79.63l.76-.32.78-.25,1.56-.48a48.83,48.83,0,0,1,6.25-1.49c1.05-.16,2.1-.22,3.14-.34l1.55-.16c.51,0,1,0,1.55,0h3.06c1,0,2,.19,3,.27a42,42,0,0,1,5.8,1l.71.14c.23.06.46.14.68.21l1.37.43c.9.29,1.81.53,2.68.87l2.54,1.08,1.26.54c.4.2.79.43,1.19.64L181.17,83a8.54,8.54,0,0,1,1.11.69l1.07.73c.71.49,1.42,1,2.1,1.45l1.91,1.59a45.78,45.78,0,0,1,11,13.72,43.74,43.74,0,0,1,4.41,12.54c.09.45.18.89.26,1.31a8.11,8.11,0,0,1,.2,1.25c.07.8.15,1.56.21,2.26s.15,1.35.17,1.94,0,1.14,0,1.62c0,1,0,1.69,0,2.19S203.57,125.07,203.57,125.07Z" style="fill:#263238"></path><path d="M170.65,122.75a4.3,4.3,0,1,0,4.18-4.41A4.3,4.3,0,0,0,170.65,122.75Z" style="fill:#263238"></path><path d="M153.44,123.22a4.3,4.3,0,1,0,4.18-4.41A4.31,4.31,0,0,0,153.44,123.22Z" style="fill:#263238"></path><path d="M136.22,121.54a4.3,4.3,0,1,0,5.83-1.73A4.3,4.3,0,0,0,136.22,121.54Z" style="fill:#263238"></path></g><g id="freepik--Character--inject-95"><path d="M309.45,199.34c-1.22-3.39-3-6.75-2.87-10.36.14-4.51,3.2-8.42,4.07-12.85,1-4.95-.86-10-1.86-14.91-1.46-7.18-1.17-14.57-1.32-21.9s-.79-14.83-3.92-21.45-9.22-12.25-16.5-13L231.12,142.4c-1.17,13.61-9.74,26.72-6.69,40,.61,2.67,1.68,5.22,2.15,7.92a36.64,36.64,0,0,1,.13,8.57q-.39,6.1-.79,12.21c-.11,1.84-.2,3.83.79,5.39,1.11,1.75,3.26,2.49,5.26,3.06A194.57,194.57,0,0,0,298,227c3.41-.21,7.07-.62,9.59-2.92,2.13-1.95,3-4.92,3.45-7.78A35,35,0,0,0,309.45,199.34Z" style="fill:#263238"></path><path d="M230.72,136.19c2.73-11.6,5.53-23.67,15.13-30.71,8.57-6.28,18.14-7.79,28.72-7,5.22.38,11,3,15.5,5.71,6.11,3.73,8.52,11,11.32,17.57,5.6,13.22,4.26,30.83,0,35.6l-55.36,27c-9.47-5.33-15.84-7.88-18-18.52C226.51,158.57,229,143.39,230.72,136.19Z" style="fill:#263238"></path><path d="M246.68,116.27l34.58-9c11.09-1.25,18.56,12.36,19.33,23.49.87,12.36,1.44,27.49,0,36.73-2.82,18.58-17,21-17,21s0,.28-.11,5.8l.1,12.41C279,221.8,263.76,220,244.7,212.16l-3.81-89.23A6.52,6.52,0,0,1,246.68,116.27Z" style="fill:#ffbe9d"></path><path d="M293.52,146.83a2.37,2.37,0,0,1-2.28,2.42,2.28,2.28,0,0,1-2.46-2.13,2.37,2.37,0,0,1,2.27-2.42A2.27,2.27,0,0,1,293.52,146.83Z" style="fill:#263238"></path><path d="M297.37,140.89c-.3.31-2.11-1-4.67-1s-4.43,1.31-4.71,1c-.14-.14.16-.7,1-1.3a6.61,6.61,0,0,1,3.77-1.19,6.34,6.34,0,0,1,3.72,1.17C297.24,140.19,297.51,140.75,297.37,140.89Z" style="fill:#263238"></path><path d="M270.94,146.83a2.39,2.39,0,0,1-2.28,2.42,2.29,2.29,0,0,1-2.47-2.13,2.39,2.39,0,0,1,2.28-2.42A2.27,2.27,0,0,1,270.94,146.83Z" style="fill:#263238"></path><path d="M272.19,140.58c-.29.31-2.1-1-4.66-1s-4.43,1.32-4.71,1c-.14-.14.16-.7,1-1.3a6.49,6.49,0,0,1,3.77-1.19,6.29,6.29,0,0,1,3.72,1.17C272.07,139.88,272.34,140.44,272.19,140.58Z" style="fill:#263238"></path><path d="M281.62,158.24c0-.15,1.58-.43,4.15-.78.66-.07,1.27-.21,1.38-.65a3.36,3.36,0,0,0-.45-1.94q-.93-2.37-2-5c-2.73-7.08-4.71-12.89-4.43-13s2.74,5.54,5.47,12.61c.66,1.74,1.29,3.4,1.89,5a3.77,3.77,0,0,1,.35,2.56,1.61,1.61,0,0,1-1.07,1,4.85,4.85,0,0,1-1.1.17C283.24,158.36,281.63,158.39,281.62,158.24Z" style="fill:#263238"></path><path d="M283.59,188.53a47.19,47.19,0,0,1-24.89-6.46s6.23,13,24.79,11.09Z" style="fill:#eb996e"></path><path d="M273.19,163.08a4.11,4.11,0,0,1,3.41-1.89,5.33,5.33,0,0,1,4.89,2.38,3.3,3.3,0,0,1,.23,2.4c-.17.41,0,.21-.35.49a9.34,9.34,0,0,1-3.81,2.4,4,4,0,0,1-4.25-1.53A4.07,4.07,0,0,1,273.19,163.08Z" style="fill:#eb996e"></path><path d="M273.63,160.16c.42,0,.46,2.75,2.86,4.69s5.36,1.6,5.39,2c0,.17-.66.55-1.91.6a7,7,0,0,1-4.49-1.5,6,6,0,0,1-2.22-3.94C273.14,160.84,273.44,160.14,273.63,160.16Z" style="fill:#263238"></path><path d="M273.47,132c-.21.71-2.78.55-5.76,1.1s-5.35,1.53-5.78.93c-.2-.28.18-1,1.11-1.7a9.73,9.73,0,0,1,4.22-1.79,9.86,9.86,0,0,1,4.58.24C273,131.15,273.55,131.66,273.47,132Z" style="fill:#263238"></path><path d="M297.38,135c-.6.48-2.43-.46-4.76-.9s-4.38-.38-4.73-1.06c-.15-.33.27-.85,1.23-1.24a7.69,7.69,0,0,1,7.64,1.58C297.48,134.08,297.65,134.72,297.38,135Z" style="fill:#263238"></path><path d="M280.85,105.26c0,.14,0,.27.07.41l-.06,0C280.85,105.55,280.85,105.41,280.85,105.26Z" style="fill:#263238"></path><path d="M242.07,192.33c4.17-1.14,7-5.17,8.06-9.36s.63-8.58.35-12.89-.4-8.78,1.18-12.79c1.07-2.72,2.89-5.14,3.54-8,1.12-4.9-1.41-10.17.08-15,1-3.35,3.84-5.79,6.1-8.48a31,31,0,0,0,7.19-19.64,40.36,40.36,0,0,0-16.93,4.29,26.62,26.62,0,0,0-12,12.42c-2.44,5.55-2.54,11.8-2.61,17.86q-.27,25.38-.53,50.75" style="fill:#263238"></path><path d="M267.49,109.87c1.66,2.95,4.85,4.73,8.07,5.77s6.61,1.5,9.82,2.6a26.18,26.18,0,0,1,17.17,22.36,25.35,25.35,0,0,0-32.43-34.7" style="fill:#263238"></path><path d="M235.34,127.94c1.15-7.7,2.5-8.36.41-12.86s-9.75-8.82-14.7-8.43-9.41,4.73-9.48,9.69c-.07,5.37,4.49,9.75,9.38,12a11.52,11.52,0,0,0-3.41,2.08,3.87,3.87,0,0,0-1.2,3.64c.53,1.91,3,2.73,4.9,2.19s3.39-2,4.78-3.46c-.42,1.86,1.43,3.68,3.33,3.69a5.45,5.45,0,0,0,4.51-3,15.81,15.81,0,0,0,1.48-5.48" style="fill:#263238"></path><path d="M229.87,138a3.93,3.93,0,0,1,0-.94,24.52,24.52,0,0,1,.18-2.54,39.31,39.31,0,0,1,5.38-15.82c.56-.91,1-1.64,1.41-2.12a3.42,3.42,0,0,1,.6-.72c.07,0-.66,1.16-1.69,3a48,48,0,0,0-3.36,7.6,48.84,48.84,0,0,0-2,8.08C230.06,136.63,230,138,229.87,138Z" style="fill:#FF8B3B"></path><path d="M233.44,124.94a13.16,13.16,0,0,1,1.65.12,30.51,30.51,0,0,0,4.48,0,28,28,0,0,0,23.49-15.59,30,30,0,0,0,1.72-4.14,13,13,0,0,1,.53-1.56s0,.15-.06.42-.13.69-.28,1.2a24.79,24.79,0,0,1-1.58,4.25,27.54,27.54,0,0,1-23.79,15.79,26.12,26.12,0,0,1-4.53-.2c-.53-.06-.94-.16-1.21-.21A1.5,1.5,0,0,1,233.44,124.94Z" style="fill:#455a64"></path><path d="M262.22,125.76a6.29,6.29,0,0,1-1,.8,13,13,0,0,1-1.26.84c-.51.31-1.07.68-1.74,1a32.1,32.1,0,0,1-4.8,2.09,37.21,37.21,0,0,1-6.25,1.48,36.37,36.37,0,0,1-6.41.27,31.85,31.85,0,0,1-5.19-.7c-.73-.13-1.38-.34-1.95-.49a13.61,13.61,0,0,1-1.44-.47,5.68,5.68,0,0,1-1.19-.5c0-.1,1.76.55,4.66,1.1a34.74,34.74,0,0,0,5.13.58A35.67,35.67,0,0,0,253.25,130a35.48,35.48,0,0,0,4.79-2C260.68,126.77,262.16,125.67,262.22,125.76Z" style="fill:#455a64"></path><path d="M305.26,138.11c-.05,0-.05-.74-.17-2.07a27.26,27.26,0,0,0-1-5.53,22.12,22.12,0,0,0-3.78-7.35,24.71,24.71,0,0,0-8-6.23c-3.23-1.66-6.5-2.88-9.43-4.08a56.11,56.11,0,0,1-7.6-3.63,26.56,26.56,0,0,1-2.69-1.82c-.74-.6-1.36-1.15-1.85-1.61l-1-1.15c-.23-.27-.35-.42-.33-.43a2.47,2.47,0,0,1,.41.36l1.09,1.07c.51.43,1.14,1,1.88,1.53s1.65,1.16,2.7,1.73a60.78,60.78,0,0,0,7.6,3.51c2.93,1.17,6.21,2.38,9.49,4a25.17,25.17,0,0,1,8.1,6.4,22,22,0,0,1,3.76,7.55,25.51,25.51,0,0,1,.9,5.62c0,.67,0,1.19,0,1.54A2.24,2.24,0,0,1,305.26,138.11Z" style="fill:#455a64"></path><polygon points="312.93 335.83 320.48 348.59 260.25 381.86 262.4 335.83 274.03 325.62 312.93 335.83" style="fill:#263238"></polygon><path d="M184,270.17s9.24-53.12,11.19-55.86,9.76-8.2,9.76-8.2l19.53,47.21-2.72,18.06Z" style="fill:#455a64"></path><path d="M239.88,193.34c-1.56.19-27.21,7-34.91,12.77L221,271.16l5.07,59L280.2,334l35.7,6.82-3.1-6.76s1.38,2.47.59-2.6-12.69-19.92-12.1-23.63,5.07-9.77,6.44-17.19a180.57,180.57,0,0,0,1.39-22.57c.25-25.13-.74-61.69-.74-61.69l-24.1-9c-8.13,10.24-29.86,8.11-40.45-5.73Z" style="fill:#455a64"></path><path d="M308,206.3s13.82,6.65,16.51,16.63,11.9,47.4,11.9,47.4-21.11,1.32-27.26-2.22S308,206.3,308,206.3Z" style="fill:#455a64"></path><path d="M222.16,272.77a2.54,2.54,0,0,1-.07-.67c0-.49-.06-1.12-.1-1.9-.12-1.65-.35-4-.77-7a205.11,205.11,0,0,0-4.81-22.61,148.44,148.44,0,0,0-7.55-21.82c-.67-1.31-1.2-2.55-1.79-3.56s-1.06-1.91-1.52-2.59l-1.1-1.55a3.53,3.53,0,0,1-.36-.57,3.91,3.91,0,0,1,.44.5c.3.39.7.88,1.19,1.5s1,1.57,1.61,2.57,1.17,2.23,1.86,3.55a135.75,135.75,0,0,1,7.73,21.84,180.08,180.08,0,0,1,4.66,22.69c.38,2.94.55,5.34.61,7v1.91A3.84,3.84,0,0,1,222.16,272.77Z" style="fill:#263238"></path><path d="M220,264.29a6.69,6.69,0,0,1-1.35.19c-.87.08-2.13.16-3.7.21a83,83,0,0,1-12.21-.56,83.9,83.9,0,0,1-12-2.36c-1.5-.42-2.71-.8-3.54-1.09a6.43,6.43,0,0,1-1.26-.5,7.47,7.47,0,0,1,1.32.31c.84.23,2.06.55,3.58.92A98.54,98.54,0,0,0,215,264.32c1.56,0,2.82,0,3.69-.05A7.58,7.58,0,0,1,220,264.29Z" style="fill:#263238"></path><path d="M315.13,243.67c-.8-4.91-3.35-9.44-3.82-14.4-.36-3.84.56-7.68,1-11.52A44.57,44.57,0,0,0,304.76,188l-20.27,5.21c-2.61,4-1.2,9.45,1,13.74s5.18,8.4,5.58,13.2c.43,5.1-2.15,10.08-1.88,15.19.29,5.64,3.93,10.45,6.26,15.59s3,12.14-1.49,15.59a9.83,9.83,0,0,0,8.83-5.67c.06,1.71.11,3.42.16,5.13A21.32,21.32,0,0,0,315.13,243.67Z" style="fill:#263238"></path><path d="M212.36,230.45a106.58,106.58,0,0,1-10.6,1.15,105.45,105.45,0,0,1-10.65.62c0-.14,4.74-.65,10.6-1.14S212.35,230.31,212.36,230.45Z" style="fill:#fff"></path><path d="M289.59,231.56c0,.14-16.5.95-36.86,1.8s-36.89,1.43-36.89,1.29,16.49-1,36.86-1.81S289.58,231.42,289.59,231.56Z" style="fill:#fff"></path><path d="M325.1,228.24c0,.16-2.84-.5-6.35-.81s-6.38-.18-6.39-.34a20.57,20.57,0,0,1,6.44-.18A21,21,0,0,1,325.1,228.24Z" style="fill:#fff"></path><path d="M233.42,427c-2,.35-58,12.36-58,12.36l-7.7-25,54.89-21.72Z" style="fill:#ffbe9d"></path><path d="M179.79,409.56s-9,21.88,6.24,27.74l-4.7,6.23-38.71,24.33a5.9,5.9,0,0,1-7.75-1.09,5.7,5.7,0,0,1-.68-6.13c5.26-10.59,24.8-49.43,28.79-50.34l10.4-3.08c2.16-.64,5,.58,6.41,2.34Z" style="fill:#FF8B3B"></path><g style="opacity:0.6000000000000001"><path d="M134.28,465.88l32.31-56.71-2.27.71c-2.51.54-3.15,1.91-4.37,3.56-3.59,4.89-11.06,17.66-25.82,47a5.74,5.74,0,0,0,.15,5.4Z" style="fill:#fff"></path></g><g style="opacity:0.6000000000000001"><path d="M175.26,413.34a3.47,3.47,0,0,1-4,2.26,3.33,3.33,0,0,1-2.27-4c.47-1.63,2.7-3,4.28-2.37s2.76,2.93,1.91,4.41" style="fill:#fff"></path></g><path d="M153.77,446.39c-.05.35,3.12.68,5.62,3.38s2.74,5.81,3.09,5.78c.15,0,.35-.8.14-2.11a9.15,9.15,0,0,0-6.74-7.08C154.59,446.08,153.77,446.25,153.77,446.39Z" style="fill:#263238"></path><path d="M147.82,452.43c-.15.32,2.12,1.49,3.77,4s1.94,5,2.3,5,.65-2.86-1.28-5.69S147.87,452.11,147.82,452.43Z" style="fill:#263238"></path><path d="M160.72,436.45c-.18.33,3.32,2.11,6.24,5.79s4,7.44,4.32,7.34-.19-4.2-3.37-8.1S160.78,436.15,160.72,436.45Z" style="fill:#263238"></path><path d="M173.27,431.54c-.28.25,1.88,2.81,3.22,6.6s1.37,7.12,1.73,7.13.91-3.49-.58-7.55S173.46,431.3,173.27,431.54Z" style="fill:#263238"></path><path d="M177.28,440.29a4.8,4.8,0,0,0,1.9-.92,14.57,14.57,0,0,0,4.12-4.06,6.48,6.48,0,0,0,1.45-3.92,2.29,2.29,0,0,0-1.66-2.06,3.75,3.75,0,0,0-2.64.39,8.1,8.1,0,0,0-3.33,9.77,9.38,9.38,0,0,0,8.64,5.87,3.24,3.24,0,0,0,2.47-1.12,2.24,2.24,0,0,0,0-2.65,8.06,8.06,0,0,0-3.41-2.37,16.31,16.31,0,0,0-5.62-1.35,5.07,5.07,0,0,0-2.11.14c0,.24,3.09,0,7.37,2a7.42,7.42,0,0,1,2.92,2.14,1.2,1.2,0,0,1,0,1.44,2.26,2.26,0,0,1-1.67.65,8.38,8.38,0,0,1-7.43-5.19,7,7,0,0,1,2.7-8.33,2.81,2.81,0,0,1,1.84-.35,1.24,1.24,0,0,1,.93,1.12,5.83,5.83,0,0,1-1.17,3.34C180,438.83,177.11,440.1,177.28,440.29Z" style="fill:#263238"></path><path d="M194.16,270.57a290.38,290.38,0,0,0,2.3,32.44c2.11,14.54,5.13,22.79,8.51,26.82s7,3.26,7,3.26l33.78-51.82L235,275.71l-13.43,14.58.17-18.91Z" style="fill:#ffbe9d"></path><path d="M265.62,382.26c-.27,2-5.3,59.09-5.3,59.09H234.19L229.6,382.5Z" style="fill:#ffbe9d"></path><path d="M232.55,428.73s20.83,14.78,30.9,2l2.64,6.2,11.84,44.16a5.93,5.93,0,0,1-3.33,7.09,5.73,5.73,0,0,1-6.06-1.16c-8.57-8.15-39.92-38.27-39.62-42.36l.13-10.84a5.51,5.51,0,0,1,3.5-5.08Z" style="fill:#FF8B3B"></path><g style="opacity:0.6000000000000001"><path d="M273.58,488.47l-44.67-47.59v2.37c-.22,2.57.9,3.58,2.12,5.23,3.61,4.87,13.61,15.77,37.33,38.53a5.71,5.71,0,0,0,5.21,1.46Z" style="fill:#fff"></path></g><g style="opacity:0.6000000000000001"><path d="M235.45,433.83a3.46,3.46,0,0,1,1,4.52,3.33,3.33,0,0,1-4.47,1c-1.43-.93-2.06-3.46-1-4.79s3.61-1.77,4.76-.52" style="fill:#fff"></path></g><path d="M260.7,464.1c.32.15,1.56-2.78,4.88-4.37s6.36-.91,6.43-1.26c.05-.14-.66-.57-2-.75a9.16,9.16,0,0,0-8.75,4.35C260.64,463.22,260.56,464.05,260.7,464.1Z" style="fill:#263238"></path><path d="M264.71,471.56c.27.25,2.06-1.58,4.94-2.42s5.37-.38,5.46-.73-2.54-1.46-5.81-.44S264.42,471.42,264.71,471.56Z" style="fill:#263238"></path><path d="M253.25,454.53c.26.27,3-2.56,7.37-4.25s8.28-1.6,8.29-2-4.07-1.06-8.74.82S253,454.38,253.25,454.53Z" style="fill:#263238"></path><path d="M252.26,441.09c.15.33,3.23-1,7.25-1.13s7.21.79,7.32.44-3.06-1.89-7.38-1.67S252.08,440.83,252.26,441.09Z" style="fill:#263238"></path><path d="M261.8,439.84a4.93,4.93,0,0,0-.32-2.1,14.68,14.68,0,0,0-2.67-5.13,6.46,6.46,0,0,0-3.32-2.54,2.28,2.28,0,0,0-2.45,1,3.74,3.74,0,0,0-.41,2.64,8.1,8.1,0,0,0,8.36,6.06,9.39,9.39,0,0,0,8.16-6.53,3.28,3.28,0,0,0-.35-2.69,2.25,2.25,0,0,0-2.54-.74,8,8,0,0,0-3.27,2.56,16.43,16.43,0,0,0-2.95,5,5,5,0,0,0-.49,2.06c.22.11.88-3,4.08-6.45a7.46,7.46,0,0,1,2.91-2.16,1.21,1.21,0,0,1,1.39.39,2.28,2.28,0,0,1,.12,1.79,8.37,8.37,0,0,1-7.14,5.57,7,7,0,0,1-7.17-5,2.7,2.7,0,0,1,.21-1.85,1.23,1.23,0,0,1,1.35-.56,5.9,5.9,0,0,1,2.85,2.1C261.22,436.77,261.56,439.94,261.8,439.84Z" style="fill:#263238"></path><path d="M331.53,270.52s-2.25,48.75-5.9,56.43-8.43,11.7-12.08,10.84-37.2-17.46-42.51-34.41L282,292s20.16,12.28,23.16,12.17l4-36.1Z" style="fill:#ffbe9d"></path><path d="M317.6,316.4c-.09,0-.19-1.07-.74-2.69a14.44,14.44,0,0,0-3.52-5.56,14.21,14.21,0,0,0-5.69-3.31c-1.63-.5-2.71-.55-2.7-.65a2.16,2.16,0,0,1,.76,0,11.58,11.58,0,0,1,2,.32,13.18,13.18,0,0,1,9.46,9.12,11,11,0,0,1,.39,2A2,2,0,0,1,317.6,316.4Z" style="fill:#eb996e"></path><path d="M221.73,289.69a28.65,28.65,0,0,1-2.35,2.41c-1.46,1.46-3.44,3.52-5.49,5.92s-3.77,4.69-5,6.37a25.86,25.86,0,0,1-2,2.69,3.69,3.69,0,0,1,.4-.81c.29-.51.73-1.22,1.3-2.09a67.48,67.48,0,0,1,10.53-12.35c.76-.7,1.4-1.25,1.86-1.62S221.7,289.66,221.73,289.69Z" style="fill:#eb996e"></path><path d="M199.59,399.53s109-47.95,113.84-50.66S335,339.42,343.14,344s16.48,17.56,12.16,31.6-24,36.2-30.79,40.25S263.73,418,263.73,418l-51.82,15.45Z" style="fill:#263238"></path><path d="M341,391.8a6.55,6.55,0,0,1-.68.51c-.46.31-1.12.81-2,1.36a75.31,75.31,0,0,1-7.79,4.39,108.72,108.72,0,0,1-12.26,5.1c-4.71,1.66-10,3.2-15.56,4.64-11.17,2.84-21.35,5.07-28.59,7.19-3.63,1-6.54,2-8.53,2.63l-2.3.78a6.24,6.24,0,0,1-.82.25,4.34,4.34,0,0,1,.78-.34c.52-.21,1.27-.52,2.27-.88,2-.73,4.87-1.71,8.49-2.79,7.23-2.22,17.41-4.51,28.57-7.34,5.56-1.45,10.83-3,15.54-4.6a113.56,113.56,0,0,0,12.25-5c3.39-1.63,6.05-3.13,7.85-4.23.91-.53,1.58-1,2.06-1.28A4.34,4.34,0,0,1,341,391.8Z" style="fill:#455a64"></path><path d="M345.25,374a7.84,7.84,0,0,1,.27,2.41,23,23,0,0,1-2.79,11.31,7.64,7.64,0,0,1-1.37,2A31,31,0,0,0,345.25,374Z" style="fill:#455a64"></path><path d="M319.62,346.08a2.39,2.39,0,0,1-.52.27l-1.51.68L312,349.5c-4.7,2.11-11.12,5.17-18.17,8.63s-13.46,6.59-18.15,8.73c-2.35,1.07-4.26,1.91-5.59,2.47l-1.53.63a2.84,2.84,0,0,1-.55.19,2.08,2.08,0,0,1,.51-.29l1.49-.72,5.51-2.62c4.65-2.21,11-5.38,18.08-8.85s13.51-6.48,18.25-8.51c2.37-1,4.3-1.81,5.65-2.32l1.55-.58A3.4,3.4,0,0,1,319.62,346.08Z" style="fill:#455a64"></path><path d="M310.73,226.92a9.72,9.72,0,0,1,.35,1.68c.2,1.08.42,2.66.64,4.62a99.76,99.76,0,0,1-1.4,30.71c-.4,1.93-.76,3.48-1.06,4.55a11.91,11.91,0,0,1-.5,1.64,9.6,9.6,0,0,1,.3-1.69c.24-1.07.55-2.64.9-4.57a114.31,114.31,0,0,0,1.4-30.6c-.18-2-.34-3.54-.48-4.64A11.72,11.72,0,0,1,310.73,226.92Z" style="fill:#263238"></path><path d="M282.56,262.69l-12.81,29.17s-51.41,15.79-56.48,20.71H209.6l28.85-33.83s22.86-12.83,29.27-14.6,13.06-2.83,13.06-2.83Z" style="fill:#fff"></path><path d="M242.27,280.91s17.51-10.2,25.65-12.8a143.91,143.91,0,0,1,15.66-4l-12.7,28.8-33.53,7.4Z" style="fill:#FF8B3B"></path><path d="M258.35,281.46s-1.37-2.65-.53-3.92,10-2.46,15.78-3.16,9.34.89,9,6.14a7.16,7.16,0,0,1,1.95,5.46c-.31,3.27-1.95,3.8-1.95,3.8s1.75,4,0,6.12-2.42,1.79-2.42,1.79a7.1,7.1,0,0,1-2.39,4.17c-2,1.53-6.35,2.33-6.35,2.33L260.6,282Z" style="fill:#ffbe9d"></path><path d="M278.93,280.91a13.43,13.43,0,0,1-2.67.44c-1.66.2-4,.42-6.51.57s-4.85.22-6.53.22a13.33,13.33,0,0,1-2.7-.12,15.54,15.54,0,0,1,2.69-.25l6.51-.37,6.5-.41A14.78,14.78,0,0,1,278.93,280.91Z" style="fill:#eb996e"></path><path d="M278.42,289a44.85,44.85,0,0,1-6.91-.1,44.26,44.26,0,0,1-6.88-.63,47.33,47.33,0,0,1,6.91.11A46.65,46.65,0,0,1,278.42,289Z" style="fill:#eb996e"></path><path d="M278,295.65a16.79,16.79,0,0,1-10.29-1.33c.05-.15,2.27.61,5.1,1S278,295.49,278,295.65Z" style="fill:#eb996e"></path><path d="M282.55,289.75s.2.26.41.82a10.35,10.35,0,0,1,.54,2.43,28.49,28.49,0,0,1,.1,3.69,11.48,11.48,0,0,1-.19,2.2,4.66,4.66,0,0,1-1.14,2.14,10.22,10.22,0,0,1-3.88,2.4,16,16,0,0,1-3.6.9,10.67,10.67,0,0,1-2.49.05,2.17,2.17,0,0,1-.9-.19,21.15,21.15,0,0,0,3.34-.23,17.33,17.33,0,0,0,3.47-1,10.06,10.06,0,0,0,3.67-2.3,4.08,4.08,0,0,0,1-1.91,11.5,11.5,0,0,0,.21-2.1,34.14,34.14,0,0,0,0-3.63A19.21,19.21,0,0,0,282.55,289.75Z" style="fill:#eb996e"></path><path d="M244.29,280.65s3.28-3.75,6.58-4,10.8-1.44,14.11,4.82,7.5,25.27,7.61,32.16-6.22,96.27-6.22,96.27H229.65l-3.36-21.4-23.37,9.94s-9.33-6-10.23-19.78.83-30.86,3.86-35.36S244.29,280.65,244.29,280.65Z" style="fill:#263238"></path><path d="M272.15,320.46s0,.15,0,.45l-.07,1.29c-.08,1.17-.18,2.85-.32,5-.29,4.4-.71,10.76-1.24,18.72s-1.12,17.55-1.77,28.35-1.36,22.82-2.13,35.67l0,.23H230.3l0-.21-4.41-22.63v0a107.1,107.1,0,0,1-5.19-33.69,145.37,145.37,0,0,1,2.65-26.88c1.41-7.46,2.94-13.32,4.06-17.31.54-2,1-3.53,1.33-4.56.16-.51.27-.89.36-1.18a3.46,3.46,0,0,1,.14-.39s0,.14-.1.41l-.32,1.18c-.27,1-.73,2.58-1.25,4.58-1.06,4-2.54,9.87-3.9,17.33a146.76,146.76,0,0,0-2.54,26.82,107.25,107.25,0,0,0,5.23,33.53h0v0c1.41,7.19,2.9,14.78,4.43,22.63l-.25-.21h35.85l-.26.24c.8-12.85,1.54-24.87,2.21-35.67s1.25-20.38,1.87-28.35,1.07-14.31,1.4-18.7c.17-2.17.3-3.85.4-5,.05-.56.08-1,.11-1.3S272.15,320.46,272.15,320.46Z" style="fill:#455a64"></path><path d="M260.41,249.66l-9.67.89,5.6,4.58a4.25,4.25,0,0,0,4.07-5.47Z" style="fill:#ffbe9d"></path><path d="M238,252.65l-10.88-4.31a1.86,1.86,0,0,1-1-2.43h0a1.85,1.85,0,0,1,2.47-1l13.7,6,21.84,9.59,2.15,2.87-3.63.76Z" style="fill:#263238"></path><path d="M235,275.71a6.6,6.6,0,0,1-1-4.33,17.37,17.37,0,0,0-.07-5.15s-1.21-3.94,0-5.48a4.82,4.82,0,0,0,1.07-3.09s.13-4,1.25-4.34,11.66-5.07,13.07-4.51,12.78,10.53,12.78,10.53,1.13,3-1.54,2.89l3.51,3.3-6.18,2.58L239.41,278S236.06,278.41,235,275.71Z" style="fill:#ffbe9d"></path><path d="M259.66,267.15a15.72,15.72,0,0,1-2.57-.34,56.08,56.08,0,0,0-12.42-.53,16.61,16.61,0,0,1-2.59.12,10.57,10.57,0,0,1,2.56-.48,39.18,39.18,0,0,1,6.28-.24,40.22,40.22,0,0,1,6.24.77A10.51,10.51,0,0,1,259.66,267.15Z" style="fill:#eb996e"></path><path d="M260.6,262.23a13,13,0,0,0-2.2-1.71,16.9,16.9,0,0,0-6.49-1.63c-2.63-.24-5.06-.12-6.82-.22a10.39,10.39,0,0,1-2.82-.33,26.83,26.83,0,0,1,2.83,0,67,67,0,0,1,6.86.06,15.23,15.23,0,0,1,6.63,1.84,6.3,6.3,0,0,1,1.6,1.37A2,2,0,0,1,260.6,262.23Z" style="fill:#eb996e"></path><path d="M262.14,259.34a10.36,10.36,0,0,1-1.9-1.33c-1.14-.88-2.68-2.12-4.37-3.51s-3.19-2.67-4.27-3.62a10.69,10.69,0,0,1-1.67-1.62,10.23,10.23,0,0,1,1.91,1.34c1.14.87,2.68,2.11,4.37,3.5s3.19,2.68,4.26,3.63A10.35,10.35,0,0,1,262.14,259.34Z" style="fill:#eb996e"></path><path d="M240.18,277.53c0,.06-.47.24-1.3.21a5.35,5.35,0,0,1-3-1.07,5.44,5.44,0,0,1-1.84-2.6c-.24-.79-.2-1.3-.14-1.3s.17.47.49,1.17a5.77,5.77,0,0,0,4.52,3.43A7.91,7.91,0,0,1,240.18,277.53Z" style="fill:#eb996e"></path><path d="M212.23,311.7s-7.16,5.95-6.89,25.15-1.28,25.1-1.28,25.1h4.09l32.49-37.1A46.07,46.07,0,0,1,238.27,307c.41-6.75,6-26.31,6-26.31l-2,.26Z" style="fill:#FF8B3B"></path><path d="M210.21,312s-7.16,6-6.9,25.15-1.27,25.1-1.27,25.1h4.08l32.5-37.1a46.07,46.07,0,0,1-2.37-17.89c.41-6.75,6-26.31,6-26.31l-3.82-2.17Z" style="fill:#ebebeb"></path><path d="M238.54,279.57s0,.07,0,.22l-.18.64-.73,2.47c-.67,2.12-1.53,5.24-2.52,9.13a104.73,104.73,0,0,0-2.45,13.89,54.66,54.66,0,0,0-.2,8.35c.08.72.15,1.45.22,2.18s.22,1.47.4,2.19l.27,1.09.35,1.07a8.65,8.65,0,0,0,1,2l.15.19-.16.16-2.12,2.13a287.22,287.22,0,0,0-22.06,25.32c-2.63,3.41-4.69,6.21-6.11,8.16-.68.95-1.23,1.69-1.63,2.24l-.43.58c-.1.13-.15.19-.16.18s0-.07.12-.21l.39-.61c.35-.53.86-1.31,1.55-2.3,1.36-2,3.38-4.82,6-8.26a263.48,263.48,0,0,1,22-25.47l2.12-2.13,0,.35a8.81,8.81,0,0,1-1.07-2.15l-.36-1.11-.27-1.12c-.18-.74-.27-1.49-.4-2.23s-.15-1.49-.22-2.22a54.28,54.28,0,0,1,.24-8.43,100.39,100.39,0,0,1,2.56-13.93c1-3.89,1.95-7,2.69-9.1.34-1,.62-1.84.82-2.44l.22-.63C238.5,279.63,238.53,279.56,238.54,279.57Z" style="fill:#263238"></path><path d="M238.74,325.54a6,6,0,0,1-2.22-1c-1.16-.7-2-1.36-2-1.49a5.9,5.9,0,0,1,2.23,1C237.94,324.75,238.82,325.41,238.74,325.54Z" style="fill:#263238"></path><path d="M224.49,328.23a7.17,7.17,0,0,1-.28-1.39c-.15-.9-.3-2.22-.42-3.85a61.72,61.72,0,0,1,.41-12.77,62.69,62.69,0,0,1,3-12.42c.56-1.53,1.06-2.76,1.44-3.59a8,8,0,0,1,.64-1.27,7.12,7.12,0,0,1-.45,1.35c-.33.85-.77,2.09-1.28,3.63a71.68,71.68,0,0,0-2.86,12.37,72.41,72.41,0,0,0-.56,12.68c.08,1.62.17,2.94.26,3.84A8.84,8.84,0,0,1,224.49,328.23Z" style="fill:#263238"></path><path d="M220.19,329.24a3.77,3.77,0,0,1-.42-1,19.77,19.77,0,0,1-.67-3,66.11,66.11,0,0,1-.31-10.11,38,38,0,0,1,.49-5.56,28.76,28.76,0,0,1,1.12-4.43,25.88,25.88,0,0,1,1.17-2.84,4.12,4.12,0,0,1,.57-1c.08,0-.63,1.48-1.39,3.94a32.32,32.32,0,0,0-1,4.38,42,42,0,0,0-.44,5.5,83.11,83.11,0,0,0,.16,10.06C219.74,327.7,220.28,329.22,220.19,329.24Z" style="fill:#263238"></path><path d="M215.68,332.15a3.28,3.28,0,0,1,0-.85c0-.65.07-1.43.12-2.35.12-2,.32-4.8.57-8l.09.21a4.11,4.11,0,0,1,.72-6.79l.09.47a3.35,3.35,0,0,1-1.35-6.2l.32-.19-.08.36a2.53,2.53,0,0,1-1.54,1.77,1.29,1.29,0,0,1-.84.1s.3,0,.77-.26a2.37,2.37,0,0,0,1.29-1.67l.24.16a3.11,3.11,0,0,0-1.35,2.76,3,3,0,0,0,2.6,2.68l.81.09-.72.38a3.69,3.69,0,0,0-1.91,3,3.73,3.73,0,0,0,1.27,3l.1.08V321c-.28,3.22-.54,6-.75,8q-.17,1.36-.27,2.34A2.83,2.83,0,0,1,215.68,332.15Z" style="fill:#263238"></path><path d="M213.65,335.59a2.82,2.82,0,0,1-.35-.8,17.39,17.39,0,0,1-.67-2.29,33.65,33.65,0,0,1-.78-7.82,67.84,67.84,0,0,1,.58-7.82,18.27,18.27,0,0,1,.55-3.2,23.22,23.22,0,0,1-.18,3.24c-.16,2-.4,4.74-.43,7.78a41,41,0,0,0,.62,7.74C213.36,334.38,213.74,335.56,213.65,335.59Z" style="fill:#263238"></path><path d="M209,344a4.46,4.46,0,0,1-.11-1.1c0-.71-.07-1.74-.1-3,0-2.54-.14-6-.07-9.93a67.13,67.13,0,0,1,.86-9.91c.22-1.25.45-2.26.63-2.95a4,4,0,0,1,.35-1.05c.08,0-.28,1.55-.62,4.06a86.36,86.36,0,0,0-.69,9.86c-.08,3.87-.05,7.38-.09,9.92,0,1.27,0,2.3-.06,3A4.24,4.24,0,0,1,209,344Z" style="fill:#263238"></path><path d="M226.29,387.76a5.46,5.46,0,0,1-1,.59l-2.8,1.41c-2.37,1.16-5.67,2.72-9.35,4.37s-7.05,3.05-9.51,4c-1.24.47-2.24.84-2.94,1.07a5.21,5.21,0,0,1-1.11.32,5.72,5.72,0,0,1,1-.51l2.88-1.22c2.42-1,5.76-2.5,9.44-4.15l9.41-4.23,2.86-1.26A5.6,5.6,0,0,1,226.29,387.76Z" style="fill:#455a64"></path></g><g id="freepik--Plant--inject-95"><path d="M112.81,386c-2.84-.14-3.68-4.15-2.62-6.8s3.15-5,3.18-7.83c0-2.47-1.54-4.72-1.69-7.18-.27-4.45,4-8.08,4.21-12.53.14-3.47-2.27-6.77-1.69-10.2.63-3.67,4.46-6.09,5.34-9.71.94-3.85-1.74-7.93-.71-11.77s5.52-6.62,4.88-10.52c-.21-1.29-1-2.42-1.34-3.68-.81-2.91.78-5.95,2.71-8.27s4.28-4.4,5.47-7.17c1.83-4.27.56-9.46,2.72-13.57,1.79-3.42,5.79-5.72,6.3-9.55,2,3.45,0,7.84.5,11.81.31,2.59,1.65,4.93,2.47,7.4A19.29,19.29,0,0,1,141,301.88c-1.74,3.06-4.42,5.94-4.28,9.46.16,4.25,4.42,7.33,5.17,11.52,1.07,6-5.31,11.39-4.43,17.41.23,1.56.94,3,1.07,4.59.46,5.32-5.58,9.09-6.5,14.35-.68,3.88,1.56,7.88.63,11.71-.71,2.94-3.25,5.59-2.63,8.55a20.55,20.55,0,0,0,1.63,3.58,6.85,6.85,0,0,1-1.07,7.07,5.94,5.94,0,0,1-6.87,1.41" style="fill:#FF8B3B"></path><g style="opacity:0.5"><path d="M131.69,383.05a20.55,20.55,0,0,1-1.63-3.58c-.62-3,1.92-5.61,2.63-8.55.93-3.83-1.31-7.83-.63-11.71.92-5.26,7-9,6.5-14.35-.13-1.57-.84-3-1.07-4.59-.88-6,5.5-11.41,4.43-17.41-.75-4.19-5-7.27-5.17-11.52-.14-3.52,2.54-6.4,4.28-9.46a19.29,19.29,0,0,0,1.51-15.42c-.82-2.47-2.16-4.81-2.47-7.4-.46-4,1.53-8.36-.5-11.81-.51,3.83-4.51,6.13-6.3,9.55-2.16,4.11-.89,9.3-2.72,13.57-1.19,2.77-3.55,4.84-5.47,7.17s-3.52,5.36-2.71,8.27c.35,1.26,1.13,2.39,1.34,3.68.64,3.9-3.86,6.7-4.88,10.52s1.65,7.92.71,11.77c-.88,3.62-4.71,6-5.34,9.71-.58,3.43,1.83,6.73,1.69,10.2-.19,4.45-4.48,8.08-4.21,12.53.15,2.46,1.72,4.71,1.69,7.18,0,2.84-2.12,5.19-3.18,7.83s-.22,6.66,2.62,6.8l10.94,5.5a5.94,5.94,0,0,0,6.87-1.41A6.85,6.85,0,0,0,131.69,383.05Z" style="fill:#fff"></path></g><path d="M128,380.45a7.74,7.74,0,0,1-1.1-4.21c.29-1.63,3-3.06,3.73-5.82.89-3.58-.72-9.91,0-13.52.92-4.91,6-8.14,5.79-13-.06-1.43.14-5.26,0-6.68-.54-5.49,4.28-9.18,3.58-14.63-.49-3.81-4.44-8.27-4.44-12.18,0-3.22,2.31-6.05,3.84-9a20.1,20.1,0,0,0,1.74-14.3c-.6-2.22-1.64-4.28-1.81-6.65-.26-3.63,1.53-7.8-.05-10.84-.53,3.56-3.92,5.94-5.52,9.2-1.92,3.92-1,8.62-2.68,12.67-1.07,2.63-3.09,4.69-4.76,6.95s-3.08,5.17-2.5,7.8a30.62,30.62,0,0,1,1,3.3c.41,3.55-3.41,6.42-4.37,10s1.12,7.17.22,10.79c-.84,3.39-4.16,8-4.8,11.42-.59,3.19,2.3,5.27,2.08,8.47-.3,4.11-4.42,9.09-4.33,13.17,0,2.26,1.93,3,1.84,5.26-.12,2.62-2.31,7.83-3.27,10.33a7.09,7.09,0,0,0,.68,7L125,392.09C130.48,389.49,130.24,384.19,128,380.45Z" style="fill:#FF8B3B"></path><path d="M136.19,288.2a.8.8,0,0,1,0,.27c0,.21,0,.47,0,.79,0,.7,0,1.73-.13,3.06A14.94,14.94,0,0,1,135,297c-.72,1.79-2.24,3.4-3.68,5.24a9.76,9.76,0,0,0-1.74,3.19,11,11,0,0,0-.44,3.91c.13,2.76,1,5.63,1.38,8.77a13.31,13.31,0,0,1-.16,4.86,9.05,9.05,0,0,1-.95,2.36,21,21,0,0,0-1.29,2.14c-.7,1.5-.43,3.27-.07,5,.17.86.37,1.73.47,2.64a10.56,10.56,0,0,1-.07,2.75,21.73,21.73,0,0,1-1.68,5.13,41.62,41.62,0,0,0-1.89,4.81,12.48,12.48,0,0,0-.43,4.88,21.91,21.91,0,0,1,.18,4.85,14.67,14.67,0,0,1-1.55,4.36,17.4,17.4,0,0,0-1.54,4c-.51,2.69.25,5.28.2,7.68a20.55,20.55,0,0,1-1.41,6.26,21.86,21.86,0,0,0-1.19,4.64,6.63,6.63,0,0,0,.31,3c.25.64.44,1,.41,1a5.76,5.76,0,0,1-.51-.94,6.57,6.57,0,0,1-.4-3,21.44,21.44,0,0,1,1.12-4.71,20.4,20.4,0,0,0,1.32-6.17,35.19,35.19,0,0,0-.3-3.69,13.93,13.93,0,0,1,.06-4.07c.52-2.84,2.6-5.26,3-8.31a21.89,21.89,0,0,0-.19-4.75,12.79,12.79,0,0,1,.43-5.05c.93-3.33,3-6.36,3.55-9.89a10,10,0,0,0,.06-2.62c-.1-.87-.29-1.73-.46-2.59-.35-1.7-.66-3.59.11-5.26a21.89,21.89,0,0,1,1.32-2.19,8.8,8.8,0,0,0,.91-2.23,13,13,0,0,0,.16-4.69c-.38-3.08-1.22-6-1.34-8.8a11.31,11.31,0,0,1,.49-4,10,10,0,0,1,1.83-3.28c1.48-1.86,3-3.41,3.7-5.14a15.41,15.41,0,0,0,1.16-4.63c.15-1.31.18-2.34.22-3,0-.32,0-.59,0-.79A.94.94,0,0,1,136.19,288.2Z" style="fill:#263238"></path><path d="M95.35,387.43c-4,.58-6.23-4.75-5.49-8.7s3-7.78,2.26-11.73c-.64-3.43-3.43-6.11-4.31-9.49-1.59-6.08,3.37-12.29,2.4-18.5-.75-4.85-5-8.77-5.12-13.67-.14-5.27,4.51-9.66,4.73-14.92.24-5.6-4.58-10.52-4.21-16.11s5.83-10.69,3.88-15.92c-.65-1.73-2-3.08-2.86-4.73-1.92-3.81-.55-8.45,1.48-12.2s4.73-7.26,5.62-11.43c1.36-6.41-1.82-13.26,0-19.54,1.55-5.23,6.46-9.51,6.11-15,3.76,4.22,2.21,10.85,3.94,16.23,1.13,3.5,3.62,6.37,5.44,9.57a27.22,27.22,0,0,1,2.13,21.79c-1.57,4.71-4.49,9.43-3.34,14.26,1.39,5.85,8.13,9,10.32,14.56,3.13,8-4.24,17.23-1.36,25.33.74,2.09,2.12,3.92,2.74,6.06,2.09,7.25-5.25,14.12-5.09,21.67.13,5.55,4.33,10.49,4.09,16-.18,4.28-3,8.63-1.3,12.57.73,1.71,2.19,3,3.23,4.52a9.64,9.64,0,0,1,.46,10.08A8.39,8.39,0,0,1,112,392" style="fill:#FF8B3B"></path><g style="opacity:0.5"><path d="M120.69,378.13c-1-1.54-2.5-2.81-3.23-4.52-1.68-3.94,1.12-8.29,1.3-12.57.24-5.55-4-10.49-4.09-16-.16-7.55,7.18-14.42,5.09-21.67-.62-2.14-2-4-2.74-6.06-2.88-8.1,4.49-17.32,1.36-25.33-2.19-5.6-8.93-8.71-10.32-14.56-1.15-4.83,1.77-9.56,3.34-14.27a27.2,27.2,0,0,0-2.13-21.78c-1.82-3.2-4.31-6.07-5.44-9.57-1.73-5.38-.18-12-3.94-16.23.35,5.45-4.56,9.73-6.11,15-1.87,6.28,1.31,13.13,0,19.54-.89,4.17-3.59,7.68-5.62,11.43s-3.4,8.39-1.48,12.2c.82,1.65,2.21,3,2.86,4.73,2,5.23-3.51,10.35-3.88,15.92s4.45,10.51,4.21,16.11c-.22,5.26-4.87,9.65-4.73,14.92.13,4.9,4.37,8.82,5.12,13.67,1,6.21-4,12.41-2.4,18.5.88,3.38,3.67,6.06,4.31,9.49.74,3.95-1.52,7.78-2.26,11.73s1.52,9.28,5.49,8.7L112,392a8.39,8.39,0,0,0,9.13-3.83A9.64,9.64,0,0,0,120.69,378.13Z" style="fill:#fff"></path></g><path d="M114.84,375.54c-1.1-1.2-2.65-3.86-2.67-5.53,0-2.33,3.38-5.07,3.57-9.08.25-5.21-3.71-13.55-3.75-18.74-.06-7.05,6.09-12.92,4.47-19.62-.48-2-1.25-7.33-1.83-9.25-2.26-7.46,3.41-13.89,1-21.25-1.73-5.14-8.42-10.24-9.5-15.65-.88-4.47,1.55-9,2.87-13.5a28.49,28.49,0,0,0-1.5-20.29c-1.45-2.91-3.46-5.49-4.34-8.72-1.35-5,0-11.22-3-15,.23,5.08-3.81,9.31-5.13,14.27-1.58,6,.93,12.22-.24,18.28-.77,3.94-3,7.34-4.69,10.94s-2.86,8-1.34,11.48c.66,1.51,1.77,2.71,2.28,4.3,1.54,4.81-3,9.84-3.32,15.07s3.52,9.64,3.27,14.89c-.24,4.93-3.58,12.22-3.52,17.14,0,4.58,4.63,6.67,5.19,11.17.72,5.77-3.62,13.8-2.39,19.42.68,3.12,3.5,3.61,4,6.79.56,3.66-1.05,11.48-1.7,15.21s0,6.39,2.87,9.57l18.59,5.05C120.79,387.38,119,380.1,114.84,375.54Z" style="fill:#FF8B3B"></path><path d="M101,245.48a47.77,47.77,0,0,1,1,5.74,22.11,22.11,0,0,1-.25,6.82,17.33,17.33,0,0,1-1.46,4c-.67,1.36-1.48,2.74-2.21,4.23a13.85,13.85,0,0,0-1.56,4.92,15.21,15.21,0,0,0,.46,5.57c.93,3.8,2.9,7.55,4.31,11.78a18.85,18.85,0,0,1,1.1,6.74,12.83,12.83,0,0,1-.67,3.5,29.07,29.07,0,0,0-1.2,3.34c-.57,2.3.3,4.7,1.26,6.95.48,1.14,1,2.3,1.37,3.52a14.28,14.28,0,0,1,.65,3.8,30,30,0,0,1-.92,7.55,58.21,58.21,0,0,0-1.3,7.19,18,18,0,0,0,0,3.52,18.61,18.61,0,0,0,.73,3.39,31.17,31.17,0,0,1,1.56,6.65,20.61,20.61,0,0,1-.93,6.44,24.35,24.35,0,0,0-1,5.94,19.32,19.32,0,0,0,1,5.52,51.1,51.1,0,0,1,1.4,5.08,18.68,18.68,0,0,1,.23,4.79c-.1,1.52-.28,2.93-.45,4.25a30.67,30.67,0,0,0-.37,6.77,9.34,9.34,0,0,0,1.27,4c.52.82.88,1.21.85,1.23a8.81,8.81,0,0,1-.94-1.18,9.34,9.34,0,0,1-1.37-4.07,30.58,30.58,0,0,1,.29-6.83c.15-1.32.32-2.73.41-4.22a18.48,18.48,0,0,0-.26-4.71,51,51,0,0,0-1.42-5,19.39,19.39,0,0,1-1-5.64,24.61,24.61,0,0,1,1-6,20.43,20.43,0,0,0,.9-6.3,30.66,30.66,0,0,0-1.56-6.55,19.91,19.91,0,0,1-.75-3.46,18.24,18.24,0,0,1,0-3.62,59.48,59.48,0,0,1,1.3-7.26,29.8,29.8,0,0,0,.91-7.42,13.85,13.85,0,0,0-.63-3.68c-.37-1.18-.87-2.32-1.35-3.47a20.85,20.85,0,0,1-1.22-3.54A8,8,0,0,1,100,302a30,30,0,0,1,1.22-3.39,12.67,12.67,0,0,0,.66-3.36,18.4,18.4,0,0,0-1.07-6.58c-1.38-4.18-3.34-7.95-4.28-11.82a15.71,15.71,0,0,1-.43-5.71,14.16,14.16,0,0,1,1.61-5c.76-1.5,1.58-2.87,2.25-4.22a17.28,17.28,0,0,0,1.47-3.94,21.92,21.92,0,0,0,.33-6.75c-.17-1.86-.41-3.29-.56-4.26-.07-.47-.12-.84-.17-1.11A2.7,2.7,0,0,1,101,245.48Z" style="fill:#263238"></path><path d="M92.86,390.05c-2.27,1.11-4.65-1.64-5-4.15s.3-5.24-.91-7.46c-1-1.93-3.23-3-4.41-4.84-2.13-3.34-.36-8-2.14-11.54-1.39-2.76-4.69-4.28-5.71-7.19-1.1-3.12.83-6.65,0-9.84-.94-3.4-4.78-5.41-5.64-8.83s1.43-7.53-.75-10.28a32.09,32.09,0,0,0-2.63-2.28c-1.88-1.91-2-4.95-1.47-7.59s1.43-5.25,1.16-7.92c-.43-4.1-3.65-7.58-3.75-11.71-.08-3.43,2-6.94.76-10.13,3.07,1.8,3.42,6.06,5.5,8.95,1.35,1.88,3.4,3.11,5.11,4.68a17.12,17.12,0,0,1,5.48,12.62c0,3.13-.87,6.52.76,9.19,2,3.23,6.6,3.79,9,6.71,3.42,4.19.79,11.13,4.08,15.43.85,1.11,2,1.94,2.81,3.09,2.65,3.94-.41,9.47,1.15,14,1.14,3.3,4.61,5.44,5.54,8.81.72,2.59-.11,5.74,1.65,7.78a18.68,18.68,0,0,0,2.81,2.07,6.08,6.08,0,0,1,2.22,5.95,5.29,5.29,0,0,1-4.72,4.06" style="fill:#FF8B3B"></path><g style="opacity:0.5"><path d="M106.23,379.58a18.68,18.68,0,0,1-2.81-2.07c-1.76-2-.93-5.19-1.65-7.78-.93-3.37-4.4-5.51-5.54-8.81-1.56-4.49,1.5-10-1.15-14-.78-1.15-2-2-2.81-3.09-3.29-4.3-.66-11.24-4.08-15.43-2.39-2.92-7-3.48-9-6.71-1.63-2.67-.79-6.06-.76-9.19A17.12,17.12,0,0,0,73,299.92c-1.71-1.57-3.76-2.8-5.11-4.68-2.08-2.89-2.43-7.15-5.5-8.95,1.27,3.19-.84,6.7-.76,10.13.1,4.13,3.32,7.61,3.75,11.71.27,2.67-.67,5.29-1.16,7.92s-.41,5.68,1.47,7.59a32.09,32.09,0,0,1,2.63,2.28c2.18,2.75-.1,6.87.75,10.28s4.7,5.43,5.64,8.83c.88,3.19-1,6.72,0,9.84,1,2.91,4.32,4.43,5.71,7.19,1.78,3.53,0,8.2,2.14,11.54,1.18,1.85,3.36,2.91,4.41,4.84,1.21,2.22.6,4.95.91,7.46s2.7,5.26,5,4.15l10.87-.46a5.29,5.29,0,0,0,4.72-4.06A6.08,6.08,0,0,0,106.23,379.58Z" style="fill:#fff"></path></g><path d="M102.23,379.16a6.89,6.89,0,0,1-2.67-2.79c-.48-1.39,1-3.69.38-6.12-.86-3.17-4.83-7.39-5.86-10.49-1.4-4.21,1.14-8.91-1.12-12.61-.67-1.08-2.16-4.14-2.88-5.18-2.8-4-.65-9-3.54-12.9-2-2.75-7-4.51-8.71-7.54-1.4-2.5-.82-5.69-.89-8.63a17.92,17.92,0,0,0-4.83-11.85c-1.43-1.47-3.12-2.62-4.28-4.38-1.76-2.71-2.18-6.72-4.71-8.4,1.12,3-.49,6.31-.32,9.53.21,3.87,2.93,7.14,3.39,11,.31,2.5-.37,5-.69,7.45s-.16,5.34,1.42,7.13a27.78,27.78,0,0,1,2.2,2.14c1.85,2.58.13,6.45.92,9.65s4,5.09,4.83,8.28c.81,3,.23,8,1.21,10.94.92,2.74,4.06,3.1,5.27,5.68,1.55,3.32.5,9,2.32,12.09,1,1.74,2.79,1.48,3.7,3.29,1,2.09,1.59,7.08,1.93,9.44a6.3,6.3,0,0,0,3.56,5.17l12.11-.57C108.08,385.1,105.6,381.09,102.23,379.16Z" style="fill:#FF8B3B"></path><path d="M68.78,304a.93.93,0,0,1,.13.2c.1.16.21.36.35.61.3.54.75,1.34,1.23,2.42a13.81,13.81,0,0,1,1.19,4.14,22.05,22.05,0,0,1-.59,5.67,8.32,8.32,0,0,0,0,3.22,9.52,9.52,0,0,0,1.34,3.22c1.29,2.08,3.19,3.94,4.86,6.2a11.91,11.91,0,0,1,2,3.85,8.46,8.46,0,0,1,.28,2.25A18.6,18.6,0,0,0,79.5,338a7.15,7.15,0,0,0,2.08,3.87c.51.59,1,1.18,1.51,1.84a9.77,9.77,0,0,1,1.14,2.17,19.77,19.77,0,0,1,.91,4.72,36.69,36.69,0,0,0,.6,4.55,11,11,0,0,0,1.78,4,20.13,20.13,0,0,1,2.23,3.69,13.29,13.29,0,0,1,.68,4.06,15.35,15.35,0,0,0,.52,3.74c.76,2.31,2.47,4,3.46,5.88A18.55,18.55,0,0,1,96,382a19.52,19.52,0,0,0,1.07,4.12,5.93,5.93,0,0,0,1.52,2.17c.47.4.75.56.74.59a4,4,0,0,1-.8-.51,5.75,5.75,0,0,1-1.63-2.18A18.88,18.88,0,0,1,95.75,382a18.51,18.51,0,0,0-1.64-5.35c-1-1.83-2.72-3.49-3.55-5.93s-.25-5.21-1.23-7.75a19.88,19.88,0,0,0-2.2-3.6,11.34,11.34,0,0,1-1.85-4.12c-.71-3-.45-6.22-1.52-9.2A8.51,8.51,0,0,0,82.69,344c-.45-.63-1-1.22-1.48-1.82A7.55,7.55,0,0,1,79,338.05a20.87,20.87,0,0,1,.08-2.27,7.89,7.89,0,0,0-.25-2.12A11.6,11.6,0,0,0,77,330c-1.62-2.23-3.52-4.11-4.84-6.26a10,10,0,0,1-1.37-3.36,8.92,8.92,0,0,1,0-3.34,21.74,21.74,0,0,0,.65-5.59,13.37,13.37,0,0,0-1.09-4.09c-.45-1.08-.86-1.9-1.13-2.45l-.31-.64A.67.67,0,0,1,68.78,304Z" style="fill:#263238"></path><polygon points="75.49 380.48 80.19 390.05 137.54 390.05 144.01 380.48 75.49 380.48" style="fill:#455a64"></polygon><polygon points="81.57 386.75 90.15 416.38 128.78 416.42 136.56 386.8 81.57 386.75" style="fill:#455a64"></polygon><path d="M137.28,390c0,.13-12.79.24-28.57.24s-28.58-.11-28.58-.24,12.79-.25,28.58-.25S137.28,389.84,137.28,390Z" style="fill:#263238"></path></g></svg>